<svg width="26" height="26" viewBox="0 0 26 26" fill="none" xmlns="http://www.w3.org/2000/svg">
<path d="M9.19141 9.19141H6.14453V12.2383H9.19141C10.0313 12.2383 10.7148 11.5547 10.7148 10.7148C10.7148 9.87497 10.0313 9.19141 9.19141 9.19141Z" fill="#333333"/>
<path d="M9.19141 13.7617H6.14453V16.8086H9.19141C10.0313 16.8086 10.7148 16.125 10.7148 15.2852C10.7148 14.4453 10.0313 13.7617 9.19141 13.7617Z" fill="#333333"/>
<path d="M17.5703 12.2383C16.5773 12.2383 15.7301 12.875 15.4153 13.7617H19.7253C19.4105 12.875 18.5633 12.2383 17.5703 12.2383Z" fill="#333333"/>
<path d="M22.1406 0H3.80859C1.70871 0 0 1.70871 0 3.80859V22.1914C0 24.2913 1.70871 26 3.80859 26H22.1406C24.2405 26 26 24.2913 26 22.1914V3.80859C26 1.70871 24.2405 0 22.1406 0ZM14.5234 7.66797H20.6172V9.19141H14.5234V7.66797ZM12.2383 15.2852C12.2383 16.9655 10.8717 18.332 9.19141 18.332H4.62109V7.66797H9.19141C10.8717 7.66797 12.2383 9.0345 12.2383 10.7148C12.2383 11.6293 11.8253 12.4412 11.1856 13C11.8253 13.5588 12.2383 14.3707 12.2383 15.2852ZM21.3789 15.2852H15.4153C15.7299 16.1718 16.5773 16.8086 17.5703 16.8086C18.3834 16.8086 19.1422 16.3704 19.5504 15.6652L20.8685 16.4285C20.1895 17.6022 18.9255 18.332 17.5703 18.332C15.4704 18.332 13.7617 16.6233 13.7617 14.5234C13.7617 12.4236 15.4704 10.7148 17.5703 10.7148C19.6702 10.7148 21.3789 12.4236 21.3789 14.5234V15.2852Z" fill="#333333"/>
</svg>
