<svg width="662" height="635" viewBox="0 0 662 635" fill="none" xmlns="http://www.w3.org/2000/svg">
<g clip-path="url(#clip0)">
<path d="M228.335 360.224C227.404 358.753 225.483 358.234 223.939 359.037L81.0769 433.32C74.5891 436.693 72.3939 444.797 76.2913 450.986C80.1456 457.106 88.3842 458.843 94.3598 454.795L227.415 364.657C228.874 363.668 229.279 361.717 228.335 360.224Z" fill="url(#paint0_linear)"/>
<g filter="url(#filter0_f)">
<circle r="101.718" transform="matrix(0.363377 -0.931642 -0.931642 -0.363377 529.726 502.726)" fill="#FC5F7A" fill-opacity="0.24"/>
</g>
<path d="M563.973 414.924C515.481 396.01 460.838 419.988 441.924 468.48C423.01 516.972 446.988 571.615 495.48 590.529C543.972 609.443 598.615 585.465 617.529 536.973C636.442 488.481 612.465 433.838 563.973 414.924Z" fill="#F4395D" fill-opacity="0.38" stroke="#FC5F7A" stroke-width="2"/>
<mask id="mask0" mask-type="alpha" maskUnits="userSpaceOnUse" x="454" y="427" width="153" height="152">
<ellipse rx="75.8259" ry="75.8259" transform="matrix(0.363377 -0.931642 -0.931642 -0.363377 530.588 503.062)" fill="#41436A"/>
</mask>
<g mask="url(#mask0)">
<ellipse rx="75.8259" ry="75.8259" transform="matrix(0.363377 -0.931642 -0.931642 -0.363377 530.588 503.062)" fill="#FC5F7A"/>
<path fill-rule="evenodd" clip-rule="evenodd" d="M610.23 491.045L604.875 574.712L595.793 573.956L591.491 573.598L587.189 573.24L578.586 572.523L574.284 572.165L569.982 571.807L561.378 571.09L557.076 570.732L556.598 570.692L552.296 570.334L552.058 574.057L543.307 573.328L539.161 572.983L535.016 572.638L526.725 571.947L522.58 571.602L518.434 571.257L510.143 570.567L505.998 570.222L505.537 570.183L501.392 569.838L492.31 569.082L488.008 568.724L483.706 568.365L475.103 567.649L470.801 567.291L466.499 566.933L457.895 566.216L453.593 565.858L453.115 565.818L448.814 565.46L449.078 561.334L449.136 560.417L455.21 465.518C455.356 463.239 457.4 461.552 459.776 461.75L460.254 461.79C462.63 461.988 464.438 463.995 464.292 466.274L462.59 492.864C462.444 495.143 464.252 497.151 466.628 497.348C469.004 497.546 471.048 495.859 471.194 493.581L474.157 447.277C474.303 444.998 476.347 443.311 478.723 443.509C481.099 443.707 482.907 445.715 482.761 447.993L481.265 471.374C481.119 473.653 482.927 475.661 485.302 475.859C487.678 476.057 489.722 474.37 489.868 472.091L490.749 458.337C490.894 456.059 492.939 454.372 495.315 454.57C497.69 454.767 499.498 456.775 499.352 459.054L497.665 485.415C497.511 487.82 499.419 489.939 501.927 490.148C504.43 490.356 506.585 488.583 506.746 486.184L506.747 486.171L507.788 469.896C507.934 467.617 509.908 465.924 512.198 466.115L512.659 466.153C514.948 466.344 516.686 468.346 516.54 470.625L514.838 497.215C514.692 499.493 516.43 501.495 518.719 501.686C521.009 501.877 522.983 500.184 523.129 497.905L526.092 451.602C526.238 449.323 528.213 447.63 530.502 447.821C532.791 448.011 534.529 450.013 534.383 452.292L532.887 475.673C532.741 477.952 534.479 479.954 536.768 480.144C539.058 480.335 541.032 478.642 541.178 476.363L542.058 462.61C542.204 460.331 544.178 458.638 546.467 458.829C548.757 459.02 550.495 461.021 550.349 463.3L548.662 489.661C548.508 492.066 550.342 494.179 552.759 494.381C555.175 494.582 557.259 492.795 557.413 490.39L558.693 470.392C558.839 468.113 560.883 466.426 563.259 466.624L563.737 466.664C566.113 466.862 567.921 468.869 567.775 471.148L566.073 497.738C565.927 500.017 567.735 502.025 570.111 502.223C572.487 502.42 574.531 500.733 574.677 498.455L577.64 452.151C577.786 449.873 579.83 448.186 582.206 448.383C584.582 448.581 586.39 450.589 586.244 452.868L584.747 476.249C584.602 478.527 586.409 480.535 588.785 480.733C591.161 480.931 593.205 479.244 593.351 476.965L594.231 463.212C594.377 460.933 596.421 459.246 598.797 459.444C601.173 459.642 602.981 461.649 602.835 463.928L601.148 490.289C600.994 492.694 602.902 494.813 605.41 495.022C607.918 495.231 610.076 493.45 610.23 491.045Z" fill="#F4395D"/>
<path fill-rule="evenodd" clip-rule="evenodd" d="M634.53 551.648L629.137 645.781L618.733 644.849L613.805 644.408L608.878 643.967L599.022 643.085L594.094 642.644L589.166 642.203L579.31 641.32L574.382 640.879L573.835 640.83L568.907 640.389L568.667 644.577L558.641 643.68L553.893 643.255L549.144 642.83L539.647 641.98L534.898 641.555L530.149 641.13L520.652 640.279L515.903 639.854L515.375 639.807L510.627 639.382L510.627 639.382L500.223 638.451L495.295 638.01L490.367 637.568L480.511 636.686L475.584 636.245L470.656 635.804L460.8 634.922L455.872 634.481L455.324 634.432L450.396 633.99L450.662 629.348L450.721 628.317L456.838 521.547C456.985 518.984 459.311 517.103 462.032 517.346L462.58 517.395C465.301 517.639 467.389 519.915 467.242 522.479L465.528 552.395C465.381 554.959 467.468 557.234 470.19 557.478C472.911 557.722 475.237 555.841 475.384 553.277L478.368 501.182C478.515 498.618 480.841 496.737 483.562 496.981C486.284 497.224 488.371 499.5 488.224 502.064L486.717 528.37C486.57 530.933 488.658 533.209 491.379 533.453C494.101 533.696 496.426 531.816 496.573 529.252L497.46 513.778C497.606 511.214 499.932 509.333 502.653 509.577C505.375 509.821 507.462 512.096 507.315 514.66L505.616 544.318C505.461 547.025 507.664 549.427 510.537 549.684C513.402 549.94 515.85 547.968 516.018 545.274L516.02 545.25L517.069 526.939C517.216 524.375 519.461 522.487 522.083 522.722L522.611 522.769C525.234 523.004 527.241 525.273 527.094 527.836L525.38 557.752C525.233 560.316 527.24 562.585 529.863 562.82C532.485 563.054 534.73 561.166 534.877 558.603L537.862 506.508C538.009 503.944 540.254 502.056 542.877 502.29C545.499 502.525 547.506 504.794 547.359 507.358L545.852 533.663C545.705 536.227 547.712 538.496 550.335 538.73C552.958 538.965 555.203 537.077 555.35 534.513L556.236 519.04C556.383 516.476 558.628 514.588 561.251 514.822C563.874 515.057 565.881 517.326 565.734 519.89L564.035 549.548C563.879 552.254 565.998 554.649 568.766 554.897C571.535 555.144 573.905 553.151 574.06 550.445L575.349 527.946C575.496 525.382 577.821 523.502 580.543 523.745L581.09 523.794C583.812 524.038 585.899 526.314 585.752 528.877L584.038 558.793C583.891 561.357 585.978 563.633 588.7 563.877C591.422 564.12 593.747 562.239 593.894 559.676L596.879 507.581C597.025 505.017 599.351 503.136 602.072 503.38C604.794 503.623 606.881 505.899 606.734 508.463L605.227 534.768C605.08 537.332 607.168 539.608 609.889 539.852C612.611 540.095 614.936 538.214 615.083 535.65L615.97 520.177C616.117 517.613 618.442 515.732 621.164 515.976C623.885 516.219 625.973 518.495 625.826 521.059L624.126 550.717C623.971 553.423 626.175 555.826 629.047 556.083C631.92 556.34 634.375 554.355 634.53 551.648Z" fill="#B12748"/>
<path fill-rule="evenodd" clip-rule="evenodd" d="M552.156 430.364C554.161 430.962 556.158 431.646 558.141 432.42C597.156 447.637 616.448 491.601 601.23 530.616C595.31 545.796 585.037 557.99 572.397 566.328C549.742 587.276 516.276 594.751 485.597 582.785C442.776 566.083 421.602 517.83 438.304 475.009C455.006 432.188 503.259 411.014 546.08 427.716C548.157 428.526 550.183 429.41 552.156 430.364ZM459.945 475.509C474.389 438.478 514.73 419.215 552.156 430.364C590.866 449.086 609.265 494.748 593.373 535.492C588.637 547.634 581.364 558.036 572.397 566.328C552.551 579.419 526.869 583.002 503.034 573.705C464.02 558.488 444.728 514.524 459.945 475.509Z" fill="#FDA5B4"/>
</g>
<g filter="url(#filter1_f)">
<circle cx="101.752" cy="101.752" r="81.6678" transform="rotate(16.7631 101.752 101.752)" fill="#58F0FF" fill-opacity="0.24"/>
</g>
<circle cx="101.752" cy="101.752" r="75.4707" transform="rotate(16.7631 101.752 101.752)" fill="#43E2C6" fill-opacity="0.57" stroke="#43E2C6" stroke-width="2"/>
<mask id="mask1" mask-type="alpha" maskUnits="userSpaceOnUse" x="41" y="40" width="122" height="122">
<ellipse cx="101.966" cy="101.041" rx="60.8796" ry="60.8796" transform="rotate(16.7631 101.966 101.041)" fill="#41436A"/>
</mask>
<g mask="url(#mask1)">
<ellipse cx="101.966" cy="101.041" rx="60.8796" ry="60.8796" transform="rotate(16.7631 101.966 101.041)" fill="#0CFFE1"/>
<path fill-rule="evenodd" clip-rule="evenodd" d="M148.991 56.6508L93.4566 18.6129L89.4383 24.7275L87.5349 27.624L85.6315 30.5204L81.8248 36.3132L79.9214 39.2097L78.018 42.1061L74.2112 47.8989L72.3078 50.7954L72.0963 51.1172L70.1929 54.0136L67.7219 52.3211L63.8497 58.2134L62.0156 61.0045L60.1814 63.7956L56.513 69.3778L54.6789 72.1689L52.8447 74.96L49.1763 80.5422L47.3422 83.3333L47.1384 83.6434L45.3042 86.4345L41.2859 92.5491L39.3825 95.4456L37.4792 98.342L33.6724 104.135L31.769 107.031L29.8656 109.928L26.0588 115.721L24.1554 118.617L23.9439 118.939L22.0405 121.835L24.7792 123.711L25.3878 124.128L88.378 167.272C89.8905 168.308 91.9688 167.851 93.0201 166.252L93.2315 165.93C94.2828 164.33 93.9088 162.194 92.3962 161.158L74.7468 149.069C73.2343 148.033 72.8603 145.896 73.9115 144.297C74.9627 142.697 77.0411 142.24 78.5536 143.276L109.288 164.327C110.8 165.363 112.879 164.906 113.93 163.307C114.981 161.707 114.607 159.57 113.095 158.534L97.5754 147.905C96.0629 146.869 95.6889 144.732 96.7401 143.132C97.7913 141.533 99.8696 141.076 101.382 142.112L110.511 148.365C112.024 149.401 114.102 148.944 115.153 147.344C116.204 145.744 115.831 143.608 114.318 142.572L96.8207 130.587C95.2241 129.494 94.8294 127.238 95.939 125.55C97.0462 123.865 99.2329 123.381 100.829 124.465C100.832 124.468 100.836 124.47 100.839 124.472L111.642 131.872C113.154 132.908 115.201 132.498 116.214 130.956L116.418 130.646C117.431 129.105 117.026 127.015 115.514 125.979L97.8644 113.891C96.3518 112.855 95.9468 110.765 96.9598 109.224C97.9728 107.682 100.02 107.272 101.533 108.308L132.267 129.359C133.78 130.395 135.827 129.986 136.84 128.444C137.853 126.903 137.448 124.813 135.935 123.777L120.416 113.147C118.904 112.111 118.499 110.022 119.512 108.481C120.525 106.939 122.572 106.529 124.084 107.565L133.213 113.818C134.726 114.854 136.773 114.444 137.786 112.903C138.799 111.361 138.394 109.272 136.882 108.236L119.385 96.2513C117.788 95.1578 117.36 92.9522 118.43 91.3251C119.497 89.7009 121.652 89.267 123.248 90.3532C123.251 90.3551 123.254 90.3571 123.257 90.359L136.53 99.4507C138.043 100.487 140.121 100.03 141.172 98.4301L141.384 98.1083C142.435 96.5087 142.061 94.3721 140.549 93.336L122.899 81.2473C121.387 80.2113 121.013 78.0747 122.064 76.475C123.115 74.8754 125.193 74.4184 126.706 75.4544L157.44 96.5056C158.953 97.5416 161.031 97.0846 162.082 95.485C163.134 93.8853 162.76 91.7487 161.247 90.7127L145.728 80.0829C144.215 79.0469 143.841 76.9103 144.892 75.3107C145.944 73.711 148.022 73.2541 149.535 74.2901L158.664 80.5429C160.176 81.5789 162.254 81.122 163.306 79.5223C164.357 77.9227 163.983 75.7861 162.47 74.7501L144.973 62.7655C143.376 61.6719 142.982 59.4166 144.091 57.7281C145.201 56.0396 147.395 55.5573 148.991 56.6508Z" fill="#0DD9D6"/>
<path fill-rule="evenodd" clip-rule="evenodd" d="M122.716 11.2875L60.5481 -31.9076L55.9861 -24.8709L53.8251 -21.5377L51.6642 -18.2045L47.3423 -11.5381L45.1814 -8.20487L43.0204 -4.87167L38.6985 1.79473L36.5376 5.12792L36.2975 5.49828L34.1366 8.83148L31.3704 6.90952L26.9743 13.6904L24.8919 16.9024L22.8095 20.1144L18.6448 26.5384L16.5625 29.7503L14.4801 32.9623L10.3154 39.3863L8.233 42.5983L8.00163 42.9552L5.91927 46.1672L1.35728 53.2039L-0.803661 56.5371L-2.9646 59.8703L-7.28649 66.5367L-9.44743 69.8699L-11.6084 73.2031L-15.9303 79.8695L-18.0912 83.2027L-18.3313 83.5731L-20.4922 86.9063L-17.4264 89.0364L-16.7451 89.5098L53.7691 138.504C55.4623 139.68 57.8024 139.141 58.9959 137.301L59.236 136.93C60.4294 135.089 60.0243 132.643 58.3311 131.467L38.5735 117.739C36.8803 116.563 36.4751 114.117 37.6686 112.276C38.862 110.435 41.2021 109.896 42.8954 111.073L77.3008 134.978C78.994 136.154 81.3342 135.616 82.5276 133.775C83.7211 131.934 83.3159 129.488 81.6227 128.312L64.2497 116.241C62.5564 115.064 62.1513 112.618 63.3448 110.777C64.5382 108.936 66.8783 108.398 68.5715 109.574L78.791 116.675C80.4842 117.851 82.8243 117.313 84.0178 115.472C85.2112 113.631 84.8061 111.185 83.1129 110.008L63.5256 96.399C61.7383 95.1572 61.3107 92.5753 62.5704 90.6321C63.8294 88.6901 66.2973 88.1211 68.0843 89.36L68.0876 89.3622L80.1806 97.7646C81.8738 98.941 84.1787 98.4567 85.3288 96.6827L85.5602 96.3259C86.7102 94.5519 86.2699 92.1602 84.5767 90.9837L64.8191 77.256C63.1259 76.0795 62.6856 73.6877 63.8356 71.9138C64.9857 70.1399 67.2906 69.6555 68.9838 70.832L103.389 94.7372C105.083 95.9136 107.387 95.4293 108.538 93.6554C109.688 91.8814 109.247 89.4897 107.554 88.3132L90.181 76.2423C88.4878 75.0658 88.0474 72.674 89.1975 70.9001C90.3476 69.1262 92.6525 68.6418 94.3457 69.8183L104.565 76.9188C106.258 78.0953 108.563 77.611 109.713 75.837C110.863 74.0631 110.423 71.6713 108.73 70.4949L89.1426 56.8855C87.3553 55.6436 86.8905 53.119 88.1045 51.2465C89.3184 49.374 91.7514 48.8628 93.5387 50.1046L108.398 60.4289C110.091 61.6053 112.431 61.0667 113.625 59.2258L113.865 58.8555C115.058 57.0146 114.653 54.5686 112.96 53.3921L93.2023 39.6644C91.5091 38.4879 91.1039 36.0419 92.2974 34.201C93.4908 32.3601 95.8309 31.8215 97.5242 32.998L131.93 56.9032C133.623 58.0796 135.963 57.541 137.156 55.7002C138.35 53.8593 137.945 51.4132 136.252 50.2368L118.878 38.1658C117.185 36.9894 116.78 34.5434 117.974 32.7025C119.167 30.8616 121.507 30.323 123.2 31.4994L133.42 38.6C135.113 39.7765 137.453 39.2378 138.647 37.397C139.84 35.5561 139.435 33.1101 137.742 31.9336L118.154 18.3242C116.367 17.0824 115.939 14.5005 117.199 12.5573C118.459 10.6142 120.929 10.0456 122.716 11.2875Z" fill="#16C3D1"/>
<path fill-rule="evenodd" clip-rule="evenodd" d="M158.595 123.399C159.21 121.836 159.765 120.236 160.258 118.599C169.956 86.405 151.718 52.4453 119.524 42.7479C106.998 38.9748 94.2046 39.4306 82.6768 43.2921C58.22 47.2405 36.9265 64.693 29.3012 90.0081C18.6578 125.343 38.6742 162.616 74.0092 173.259C109.344 183.903 146.617 163.886 157.26 128.551C157.777 126.837 158.221 125.119 158.595 123.399ZM84.4071 159.333C114.965 168.537 147.113 152.575 158.595 123.399C165.926 89.663 146.173 55.4273 112.553 45.3002C102.533 42.282 92.357 41.7293 82.6768 43.2921C64.5768 49.3551 49.5975 63.814 43.6732 83.4818C33.9758 115.676 52.213 149.636 84.4071 159.333Z" fill="#92FFEC" fill-opacity="0.86"/>
</g>
<circle cx="87" cy="568" r="22.7558" fill="#C9FFF8" fill-opacity="0.14" stroke="#0CFFE1"/>
<g filter="url(#filter2_f)">
<circle cx="87" cy="568" r="25" fill="#0CFFE1" fill-opacity="0.24"/>
</g>
<circle cx="87" cy="568" r="15.1163" fill="url(#paint1_linear)"/>
<circle cx="595" cy="125" r="20.8953" fill="#FC5F7A" fill-opacity="0.26" stroke="#FC5F7A"/>
<g filter="url(#filter3_f)">
<circle cx="595" cy="125" r="23" fill="#F4395D" fill-opacity="0.39"/>
</g>
<circle cx="595" cy="125" r="13.907" fill="url(#paint2_linear)"/>
</g>
<defs>
<filter id="filter0_f" x="377.981" y="350.981" width="303.49" height="303.49" filterUnits="userSpaceOnUse" color-interpolation-filters="sRGB">
<feFlood flood-opacity="0" result="BackgroundImageFix"/>
<feBlend mode="normal" in="SourceGraphic" in2="BackgroundImageFix" result="shape"/>
<feGaussianBlur stdDeviation="25" result="effect1_foregroundBlur"/>
</filter>
<filter id="filter1_f" x="-50" y="-50" width="303.503" height="303.503" filterUnits="userSpaceOnUse" color-interpolation-filters="sRGB">
<feFlood flood-opacity="0" result="BackgroundImageFix"/>
<feBlend mode="normal" in="SourceGraphic" in2="BackgroundImageFix" result="shape"/>
<feGaussianBlur stdDeviation="25" result="effect1_foregroundBlur"/>
</filter>
<filter id="filter2_f" x="22" y="503" width="130" height="130" filterUnits="userSpaceOnUse" color-interpolation-filters="sRGB">
<feFlood flood-opacity="0" result="BackgroundImageFix"/>
<feBlend mode="normal" in="SourceGraphic" in2="BackgroundImageFix" result="shape"/>
<feGaussianBlur stdDeviation="20" result="effect1_foregroundBlur"/>
</filter>
<filter id="filter3_f" x="532" y="62" width="126" height="126" filterUnits="userSpaceOnUse" color-interpolation-filters="sRGB">
<feFlood flood-opacity="0" result="BackgroundImageFix"/>
<feBlend mode="normal" in="SourceGraphic" in2="BackgroundImageFix" result="shape"/>
<feGaussianBlur stdDeviation="20" result="effect1_foregroundBlur"/>
</filter>
<linearGradient id="paint0_linear" x1="77.1051" y1="449.444" x2="238.457" y2="351.627" gradientUnits="userSpaceOnUse">
<stop offset="0.109445" stop-color="white"/>
<stop offset="0.885569" stop-color="#C4C4C4" stop-opacity="0"/>
</linearGradient>
<linearGradient id="paint1_linear" x1="100.372" y1="545.035" x2="79.7326" y2="584.57" gradientUnits="userSpaceOnUse">
<stop offset="0.110095" stop-color="#E5F2F1"/>
<stop offset="0.866478" stop-color="#18C7B1"/>
</linearGradient>
<linearGradient id="paint2_linear" x1="607.302" y1="103.872" x2="588.314" y2="140.244" gradientUnits="userSpaceOnUse">
<stop stop-color="#FFD3DA"/>
<stop offset="0.77967" stop-color="#F4395D"/>
</linearGradient>
<clipPath id="clip0">
<rect width="661.45" height="634.45" fill="white"/>
</clipPath>
</defs>
</svg>
